<svg id="Camada_1" data-name="Camada 1" xmlns="http://www.w3.org/2000/svg" viewBox="0 0 575.67 140.5"><defs><style>.cls-1{fill:#feb32a;}</style></defs><circle class="cls-1" cx="44.97" cy="70.25" r="8.63"/><circle class="cls-1" cx="72" cy="70.25" r="8.63"/><circle class="cls-1" cx="99" cy="70.24" r="8.63"/><path class="cls-1" d="M75.34,482.4a9.2,9.2,0,0,0-7-8.89,54,54,0,0,1,.08-104.75,9.08,9.08,0,0,0,7-8.79v-.08a8.92,8.92,0,0,0-11-8.67,72,72,0,0,0,0,139.86,8.93,8.93,0,0,0,11-8.68Z" transform="translate(-9.5 -350.9)"/><path class="cls-1" d="M87.42,359.8h0a9.22,9.22,0,0,0,7.09,8.93,54,54,0,0,1-.05,104.84,9.18,9.18,0,0,0-7,8.88v0a8.9,8.9,0,0,0,11,8.66,72,72,0,0,0,0-140A8.9,8.9,0,0,0,87.42,359.8Z" transform="translate(-9.5 -350.9)"/><path class="cls-1" d="M252.5,389.76a9.11,9.11,0,0,1,9.11-9.11h0a9.1,9.1,0,0,1,9.1,9.11v62.78a9.1,9.1,0,0,1-9.1,9.11h0a9.11,9.11,0,0,1-9.11-9.11Z" transform="translate(-9.5 -350.9)"/><path class="cls-1" d="M343.09,389.36a8.7,8.7,0,0,1,8.7-8.71h0a8.71,8.71,0,0,1,8.71,8.71V450a11.66,11.66,0,0,1-11.66,11.66h0a11.64,11.64,0,0,1-9.25-4.57l-33.68-44v39.53a8.7,8.7,0,0,1-8.7,8.71h0a8.71,8.71,0,0,1-8.71-8.71V391.57a10.92,10.92,0,0,1,10.92-10.92h0a10.93,10.93,0,0,1,8.66,4.27l35,45.58Z" transform="translate(-9.5 -350.9)"/><path class="cls-1" d="M378.5,389.76a9.11,9.11,0,0,1,9.11-9.11h0a9.1,9.1,0,0,1,9.1,9.11v24.15l28.34-30.58a8.38,8.38,0,0,1,6.14-2.68h0a8.37,8.37,0,0,1,6.2,14l-19.78,21.81q4.22,5.81,15.53,21.67l7.05,9.8a8.67,8.67,0,0,1-7,13.73h0a8.65,8.65,0,0,1-6.92-3.47l-21.34-28.51-8.18,9v13.84a9.1,9.1,0,0,1-9.1,9.11h0a9.11,9.11,0,0,1-9.11-9.11Z" transform="translate(-9.5 -350.9)"/><path class="cls-1" d="M225.5,443.65h-27V387.81a9.11,9.11,0,0,0-18,1.95v67.07a4.82,4.82,0,0,0,4.82,4.82H225.5a9,9,0,0,0,0-18Z" transform="translate(-9.5 -350.9)"/><path class="cls-1" d="M504.5,443.65h-27V387.81a9.11,9.11,0,0,0-18,1.95v67.07a4.82,4.82,0,0,0,4.82,4.82H504.5a9,9,0,0,0,0-18Z" transform="translate(-9.5 -350.9)"/><path class="cls-1" d="M576.17,398.65a9,9,0,0,0,9-9c0-.16,0-.32,0-.48s0-.31,0-.47a8.05,8.05,0,0,0-8.06-8.05H536.85A5.34,5.34,0,0,0,531.5,386v70.18a5.47,5.47,0,0,0,5.47,5.47h40.2a8,8,0,0,0,8-8c0-.17,0-.33,0-.5s0-.33,0-.5a9,9,0,0,0-9-9H549.71v-14.8h18.75a7.71,7.71,0,1,0,0-15.41H549.71V398.65Z" transform="translate(-9.5 -350.9)"/></svg>