
<svg width="554" height="153" viewBox="0 0 554 153" fill="none" xmlns="http://www.w3.org/2000/svg">
<g filter="url(#filter0_d_1190_2)">
<path fill-rule="evenodd" clip-rule="evenodd" d="M75.0879 0H2V74.7277V149.455H75.0879C115.453 149.455 148.176 115.999 148.176 74.7277C148.176 33.4567 115.453 0 75.0879 0Z" fill="#0075F2"/>
<mask id="mask0_1190_2" style="mask-type:alpha" maskUnits="userSpaceOnUse" x="2" y="0" width="147" height="150">
<path fill-rule="evenodd" clip-rule="evenodd" d="M75.0879 0H2V74.7277V149.455H75.0879C115.453 149.455 148.176 115.999 148.176 74.7277C148.176 33.4567 115.453 0 75.0879 0Z" fill="#C4C4C4"/>
</mask>
<g mask="url(#mask0_1190_2)">
<path d="M196.264 44.1557L2 149.394L76.4184 -38.56L196.264 44.1557Z" fill="#47A0FF"/>
</g>
</g>
<path d="M202.27 102.479C197.267 102.479 192.8 101.264 188.869 98.8335C184.937 96.4034 181.828 93.0799 179.541 88.8629C177.254 84.6459 176.11 79.8571 176.11 74.4966C176.11 69.136 177.254 64.383 179.541 60.2375C181.828 56.0205 184.937 52.7327 188.869 50.374C192.8 47.9439 197.267 46.7288 202.27 46.7288C206.272 46.7288 209.775 47.4793 212.777 48.9803C215.779 50.4812 218.209 52.5897 220.067 55.3057V24H233.79V101.192H221.568L220.067 93.5802C218.352 95.9388 216.064 98.0116 213.205 99.7984C210.418 101.585 206.773 102.479 202.27 102.479ZM205.165 90.4711C209.596 90.4711 213.205 89.0058 215.993 86.0754C218.852 83.0735 220.281 79.2496 220.281 74.6038C220.281 69.958 218.852 66.1698 215.993 63.2394C213.205 60.2375 209.596 58.7365 205.165 58.7365C200.805 58.7365 197.195 60.2017 194.336 63.1322C191.477 66.0626 190.048 69.8507 190.048 74.4966C190.048 79.1424 191.477 82.9663 194.336 85.9682C197.195 88.9701 200.805 90.4711 205.165 90.4711Z" fill="white"/>
<path d="M266.098 102.479C261.523 102.479 257.771 101.764 254.84 100.335C251.91 98.8336 249.73 96.868 248.3 94.4379C246.871 92.0078 246.156 89.3275 246.156 86.397C246.156 81.4653 248.086 77.4627 251.946 74.3894C255.805 71.316 261.595 69.7793 269.314 69.7793H282.823V68.4927C282.823 64.8475 281.786 62.1673 279.713 60.4519C277.641 58.7365 275.068 57.8788 271.994 57.8788C269.207 57.8788 266.777 58.5578 264.704 59.9158C262.631 61.2024 261.345 63.1322 260.844 65.7052H247.443C247.8 61.8456 249.087 58.4863 251.302 55.6274C253.59 52.7684 256.52 50.5884 260.094 49.0875C263.667 47.515 267.67 46.7288 272.101 46.7288C279.678 46.7288 285.646 48.6229 290.006 52.411C294.366 56.1992 296.546 61.5597 296.546 68.4927V101.192H284.86L283.573 92.6153C282.001 95.4743 279.785 97.8329 276.926 99.6912C274.138 101.55 270.529 102.479 266.098 102.479ZM269.207 91.7576C273.138 91.7576 276.175 90.4711 278.32 87.898C280.535 85.3249 281.929 82.1443 282.501 78.3562H270.815C267.17 78.3562 264.561 79.0352 262.988 80.3932C261.416 81.6797 260.63 83.2879 260.63 85.2177C260.63 87.2905 261.416 88.8986 262.988 90.0422C264.561 91.1858 266.634 91.7576 269.207 91.7576Z" fill="white"/>
<path d="M332.602 101.192C327.027 101.192 322.56 99.8342 319.201 97.1182C315.841 94.4021 314.162 89.5776 314.162 82.6446V59.487H305.049V48.0154H314.162L315.77 33.7562H327.885V48.0154H342.251V59.487H327.885V82.7518C327.885 85.3249 328.421 87.1118 329.493 88.1124C330.637 89.0416 332.566 89.5062 335.282 89.5062H341.93V101.192H332.602Z" fill="white"/>
<path d="M372.367 102.479C367.792 102.479 364.04 101.764 361.109 100.335C358.179 98.8336 355.999 96.868 354.57 94.4379C353.14 92.0078 352.425 89.3275 352.425 86.397C352.425 81.4653 354.355 77.4627 358.215 74.3894C362.074 71.316 367.864 69.7793 375.583 69.7793H389.092V68.4927C389.092 64.8475 388.055 62.1673 385.983 60.4519C383.91 58.7365 381.337 57.8788 378.263 57.8788C375.476 57.8788 373.046 58.5578 370.973 59.9158C368.9 61.2024 367.614 63.1322 367.113 65.7052H353.712C354.069 61.8456 355.356 58.4863 357.571 55.6274C359.859 52.7684 362.789 50.5884 366.363 49.0875C369.937 47.515 373.939 46.7288 378.37 46.7288C385.947 46.7288 391.915 48.6229 396.275 52.411C400.635 56.1992 402.815 61.5597 402.815 68.4927V101.192H391.129L389.842 92.6153C388.27 95.4743 386.054 97.8329 383.195 99.6912C380.408 101.55 376.798 102.479 372.367 102.479ZM375.476 91.7576C379.407 91.7576 382.445 90.4711 384.589 87.898C386.804 85.3249 388.198 82.1443 388.77 78.3562H377.084C373.439 78.3562 370.83 79.0352 369.258 80.3932C367.685 81.6797 366.899 83.2879 366.899 85.2177C366.899 87.2905 367.685 88.8986 369.258 90.0422C370.83 91.1858 372.903 91.7576 375.476 91.7576Z" fill="white"/>
<path d="M423.522 39.7601C421.021 39.7601 418.948 39.0096 417.304 37.5086C415.732 36.0077 414.946 34.1136 414.946 31.8264C414.946 29.5393 415.732 27.6809 417.304 26.2514C418.948 24.7505 421.021 24 423.522 24C426.024 24 428.061 24.7505 429.633 26.2514C431.277 27.6809 432.099 29.5393 432.099 31.8264C432.099 34.1136 431.277 36.0077 429.633 37.5086C428.061 39.0096 426.024 39.7601 423.522 39.7601ZM405.833 124.779V113.093H410.014C412.372 113.093 414.052 112.628 415.053 111.699C416.053 110.77 416.554 109.197 416.554 106.982V48.0154H430.277V106.982C430.277 113.414 428.633 117.989 425.345 120.705C422.129 123.421 417.733 124.779 412.158 124.779H405.833Z" fill="white"/>
<path d="M464.539 102.479C457.892 102.479 452.746 100.406 449.101 96.2605C445.527 92.115 443.74 86.0397 443.74 78.0345V48.0154H457.356V76.748C457.356 81.3224 458.285 84.8246 460.143 87.2547C462.002 89.6848 464.932 90.8999 468.935 90.8999C472.723 90.8999 475.832 89.5419 478.262 86.8259C480.764 84.1099 482.015 80.3217 482.015 75.4615V48.0154H495.738V101.192H483.623L482.551 92.1864C480.907 95.3313 478.512 97.8329 475.368 99.6912C472.294 101.55 468.685 102.479 464.539 102.479Z" fill="white"/>
<path d="M531.803 102.479C527.086 102.479 522.941 101.728 519.367 100.227C515.793 98.6549 512.934 96.5106 510.79 93.7946C508.646 91.0786 507.359 87.9337 506.93 84.36H520.761C521.189 86.4328 522.333 88.2196 524.191 89.7206C526.121 91.1501 528.587 91.8648 531.589 91.8648C534.591 91.8648 536.771 91.2573 538.129 90.0422C539.558 88.8272 540.273 87.4334 540.273 85.861C540.273 83.5738 539.272 82.0371 537.271 81.2509C535.27 80.3932 532.482 79.5712 528.909 78.785C526.622 78.2847 524.299 77.6772 521.94 76.9624C519.581 76.2477 517.401 75.3543 515.4 74.2821C513.47 73.1386 511.898 71.7091 510.683 69.9937C509.468 68.2068 508.86 66.0269 508.86 63.4538C508.86 58.7365 510.718 54.7697 514.435 51.5533C518.223 48.337 523.512 46.7288 530.302 46.7288C536.592 46.7288 541.595 48.194 545.312 51.1245C549.1 54.0549 551.352 58.0932 552.066 63.2394H539.094C538.308 59.3083 535.341 57.3427 530.195 57.3427C527.622 57.3427 525.621 57.8431 524.191 58.8437C522.833 59.8443 522.154 61.0951 522.154 62.5961C522.154 64.1685 523.191 65.4193 525.264 66.3485C527.336 67.2777 530.088 68.1354 533.519 68.9216C537.235 69.7793 540.63 70.7442 543.704 71.8163C546.849 72.8169 549.35 74.3536 551.209 76.4264C553.067 78.4277 553.996 81.3224 553.996 85.1105C554.068 88.3983 553.21 91.3645 551.423 94.009C549.636 96.6536 547.063 98.7263 543.704 100.227C540.345 101.728 536.378 102.479 531.803 102.479Z" fill="white"/>
<defs>
<filter id="filter0_d_1190_2" x="0.683913" y="0" width="148.808" height="152.088" filterUnits="userSpaceOnUse" color-interpolation-filters="sRGB">
<feFlood flood-opacity="0" result="BackgroundImageFix"/>
<feColorMatrix in="SourceAlpha" type="matrix" values="0 0 0 0 0 0 0 0 0 0 0 0 0 0 0 0 0 0 127 0" result="hardAlpha"/>
<feMorphology radius="0.658044" operator="erode" in="SourceAlpha" result="effect1_dropShadow_1190_2"/>
<feOffset dy="1.31609"/>
<feGaussianBlur stdDeviation="0.987066"/>
<feColorMatrix type="matrix" values="0 0 0 0 0 0 0 0 0 0 0 0 0 0 0 0 0 0 0.05 0"/>
<feBlend mode="normal" in2="BackgroundImageFix" result="effect1_dropShadow_1190_2"/>
<feBlend mode="normal" in="SourceGraphic" in2="effect1_dropShadow_1190_2" result="shape"/>
</filter>
</defs>
</svg>
